<svg width="64" height="64" viewBox="0 0 64 64" fill="none" xmlns="http://www.w3.org/2000/svg">
  <!-- Gradients matching portfolio theme -->
  <defs>
    <linearGradient id="primaryGradient" x1="0%" y1="0%" x2="100%" y2="100%">
      <stop offset="0%" style="stop-color:#10b981;stop-opacity:1" />
      <stop offset="100%" style="stop-color:#059669;stop-opacity:1" />
    </linearGradient>
    <linearGradient id="accentGradient" x1="0%" y1="0%" x2="100%" y2="100%">
      <stop offset="0%" style="stop-color:#34d399;stop-opacity:1" />
      <stop offset="100%" style="stop-color:#10b981;stop-opacity:1" />
    </linearGradient>
    <linearGradient id="highlightGradient" x1="0%" y1="0%" x2="100%" y2="100%">
      <stop offset="0%" style="stop-color:#6ee7b7;stop-opacity:1" />
      <stop offset="100%" style="stop-color:#34d399;stop-opacity:1" />
    </linearGradient>
  </defs>
  
  <!-- Background with subtle border -->
  <rect width="64" height="64" rx="16" fill="white" stroke="url(#primaryGradient)" stroke-width="2"/>
  
  <!-- Main geometric shape - modern abstract design -->
  <path d="M20 20 L44 20 L44 24 L24 24 L24 40 L44 40 L44 44 L20 44 Z" fill="url(#primaryGradient)"/>
  
  <!-- Accent elements -->
  <circle cx="32" cy="32" r="6" fill="url(#accentGradient)"/>
  <circle cx="32" cy="32" r="3" fill="white"/>
  
  <!-- Decorative dots -->
  <circle cx="16" cy="16" r="2" fill="url(#highlightGradient)"/>
  <circle cx="48" cy="16" r="2" fill="url(#highlightGradient)"/>
  <circle cx="16" cy="48" r="2" fill="url(#highlightGradient)"/>
  <circle cx="48" cy="48" r="2" fill="url(#highlightGradient)"/>
  
  <!-- Subtle connecting lines -->
  <path d="M32 16 L32 20" stroke="url(#accentGradient)" stroke-width="1" opacity="0.6"/>
  <path d="M32 44 L32 48" stroke="url(#accentGradient)" stroke-width="1" opacity="0.6"/>
  <path d="M16 32 L20 32" stroke="url(#accentGradient)" stroke-width="1" opacity="0.6"/>
  <path d="M44 32 L48 32" stroke="url(#accentGradient)" stroke-width="1" opacity="0.6"/>
</svg> 